<svg width="1279" height="2499" viewBox="0 0 1279 2499" fill="none" xmlns="http://www.w3.org/2000/svg">
<g filter="url(#filter0_nfg_29_28)">
<path fill-rule="evenodd" clip-rule="evenodd" d="M962.891 1792.71C962.891 1794.67 961.435 1796.34 959.505 1796.66C708.539 1838.06 566.317 1839.19 315.349 1796.68C313.426 1796.35 311.98 1794.68 311.98 1792.73V1617.57C566.273 1646.66 708.586 1646.48 962.891 1617.57V1792.71Z" fill="#F6F5F3" fill-opacity="0.9"/>
<path fill-rule="evenodd" clip-rule="evenodd" d="M718.848 618.439C590.071 621.531 474.763 617.535 316.286 606.518C313.972 606.357 311.98 608.188 311.98 610.507V1617.57C566.273 1646.66 708.586 1646.48 962.891 1617.57V610.503C962.891 608.185 960.928 606.353 958.616 606.511C958.052 606.55 957.488 606.588 956.925 606.627L800.851 713.132C800.243 713.547 799.532 713.786 798.798 713.823C773.015 715.123 748.219 716.186 724.064 717.011C722.181 717.075 720.508 715.83 720.082 713.994C713.327 684.937 712.868 651.773 718.848 618.439Z" fill="url(#paint0_linear_29_28)" fill-opacity="0.8"/>
<path fill-rule="evenodd" clip-rule="evenodd" d="M956.925 606.627C866.803 612.78 790.728 616.714 718.848 618.439C729.648 558.241 761.446 497.49 815.076 459.384C912.86 389.906 1075.31 431.776 1115.66 493.862C1116.8 495.616 1116.25 497.905 1114.52 499.084L956.925 606.627Z" fill="url(#paint1_linear_29_28)" fill-opacity="0.8"/>
<path fill-rule="evenodd" clip-rule="evenodd" d="M718.848 618.439C790.728 616.714 866.803 612.78 956.925 606.627L800.851 713.132C800.243 713.547 799.532 713.786 798.798 713.823C773.015 715.123 748.219 716.186 724.064 717.011C722.181 717.075 720.508 715.83 720.082 713.994C713.327 684.937 712.868 651.773 718.848 618.439Z" fill="url(#paint2_linear_29_28)" fill-opacity="0.8"/>
</g>
<defs>
<filter id="filter0_nfg_29_28" x="301.28" y="412.676" width="825.679" height="1426.16" filterUnits="userSpaceOnUse" color-interpolation-filters="sRGB">
<feFlood flood-opacity="0" result="BackgroundImageFix"/>
<feBlend mode="normal" in="SourceGraphic" in2="BackgroundImageFix" result="shape"/>
<feTurbulence type="fractalNoise" baseFrequency="0.21276596188545227 0.21276596188545227" stitchTiles="stitch" numOctaves="3" result="noise" seed="1145" />
<feComponentTransfer in="noise" result="coloredNoise1">
<feFuncR type="linear" slope="2" intercept="-0.5" />
<feFuncG type="linear" slope="2" intercept="-0.5" />
<feFuncB type="linear" slope="2" intercept="-0.5" />
<feFuncA type="discrete" tableValues="1 1 1 1 1 1 1 1 1 1 1 1 1 1 1 1 1 1 1 1 1 1 1 1 1 1 1 1 1 1 1 1 1 1 1 1 1 1 1 1 1 1 1 1 1 1 1 1 1 1 1 0 0 0 0 0 0 0 0 0 0 0 0 0 0 0 0 0 0 0 0 0 0 0 0 0 0 0 0 0 0 0 0 0 0 0 0 0 0 0 0 0 0 0 0 0 0 0 0 0 "/>
</feComponentTransfer>
<feComposite operator="in" in2="shape" in="coloredNoise1" result="noise1Clipped" />
<feComponentTransfer in="noise1Clipped" result="color1">
<feFuncA type="table" tableValues="0 0.15" />
</feComponentTransfer>
<feMerge result="effect1_noise_29_28">
<feMergeNode in="shape" />
<feMergeNode in="color1" />
</feMerge>
<feGaussianBlur stdDeviation="5.35" result="effect2_foregroundBlur_29_28"/>
<feTurbulence type="fractalNoise" baseFrequency="0.10309278219938278 0.10309278219938278" numOctaves="3" seed="3824" />
<feDisplacementMap in="effect2_foregroundBlur_29_28" scale="8" xChannelSelector="R" yChannelSelector="G" result="displacedImage" width="100%" height="100%" />
<feMerge result="effect3_texture_29_28">
<feMergeNode in="displacedImage"/>
</feMerge>
</filter>
<linearGradient id="paint0_linear_29_28" x1="714.119" y1="423.376" x2="714.119" y2="1828.14" gradientUnits="userSpaceOnUse">
<stop stop-color="white"/>
<stop offset="1" stop-color="#F6F5F3"/>
</linearGradient>
<linearGradient id="paint1_linear_29_28" x1="714.119" y1="423.376" x2="714.119" y2="1828.14" gradientUnits="userSpaceOnUse">
<stop stop-color="white"/>
<stop offset="1" stop-color="#F6F5F3"/>
</linearGradient>
<linearGradient id="paint2_linear_29_28" x1="714.119" y1="423.376" x2="714.119" y2="1828.14" gradientUnits="userSpaceOnUse">
<stop stop-color="white"/>
<stop offset="1" stop-color="#F6F5F3"/>
</linearGradient>
</defs>
</svg>
