<svg width="1279" height="1796" viewBox="0 0 1279 1796" fill="none" xmlns="http://www.w3.org/2000/svg">
<g filter="url(#filter0_nfg_29_28)">
<path fill-rule="evenodd" clip-rule="evenodd" d="M1028.3 1740.85C1028.3 1742.81 1026.84 1744.49 1024.91 1744.81C707.127 1797.27 527.444 1798.71 209.663 1744.82C207.741 1744.49 206.293 1742.82 206.293 1740.87V1518.78C527.427 1555.52 707.146 1555.29 1028.3 1518.78V1740.85Z" fill="#F6F5F3" fill-opacity="0.9"/>
<path fill-rule="evenodd" clip-rule="evenodd" d="M720.106 257.035C557.174 260.947 411.315 255.874 210.601 241.902C208.287 241.741 206.293 243.572 206.293 245.891V1518.78C527.427 1555.52 707.146 1555.29 1028.3 1518.78V245.886C1028.3 243.569 1026.33 241.736 1024.02 241.895C1022.93 241.969 1021.85 242.044 1020.76 242.118L823.663 376.618C822.895 377.142 821.998 377.444 821.07 377.49C788.51 379.132 757.197 380.474 726.693 381.516C724.314 381.597 722.203 380.024 721.664 377.706C713.133 341.012 712.554 299.131 720.106 257.035Z" fill="url(#paint0_linear_29_28)" fill-opacity="0.8"/>
<path fill-rule="evenodd" clip-rule="evenodd" d="M1020.76 242.118C906.951 249.889 810.879 254.856 720.106 257.035C733.744 181.013 773.901 104.294 841.627 56.1724C965.113 -31.5673 1170.26 21.3078 1221.22 99.7124C1222.66 101.928 1221.96 104.818 1219.78 106.307L1020.76 242.118Z" fill="url(#paint1_linear_29_28)" fill-opacity="0.8"/>
<path fill-rule="evenodd" clip-rule="evenodd" d="M720.106 257.035C810.879 254.856 906.951 249.889 1020.76 242.118L823.663 376.618C822.895 377.142 821.998 377.444 821.07 377.49C788.51 379.132 757.197 380.474 726.693 381.516C724.314 381.597 722.203 380.024 721.664 377.706C713.133 341.012 712.554 299.131 720.106 257.035Z" fill="url(#paint2_linear_29_28)" fill-opacity="0.8"/>
</g>
<defs>
<filter id="filter0_nfg_29_28" x="195.593" y="1.23978e-05" width="1037.08" height="1795.4" filterUnits="userSpaceOnUse" color-interpolation-filters="sRGB">
<feFlood flood-opacity="0" result="BackgroundImageFix"/>
<feBlend mode="normal" in="SourceGraphic" in2="BackgroundImageFix" result="shape"/>
<feTurbulence type="fractalNoise" baseFrequency="0.21276596188545227 0.21276596188545227" stitchTiles="stitch" numOctaves="3" result="noise" seed="1145" />
<feComponentTransfer in="noise" result="coloredNoise1">
<feFuncR type="linear" slope="2" intercept="-0.5" />
<feFuncG type="linear" slope="2" intercept="-0.5" />
<feFuncB type="linear" slope="2" intercept="-0.5" />
<feFuncA type="discrete" tableValues="1 1 1 1 1 1 1 1 1 1 1 1 1 1 1 1 1 1 1 1 1 1 1 1 1 1 1 1 1 1 1 1 1 1 1 1 1 1 1 1 1 1 1 1 1 1 1 1 1 1 1 0 0 0 0 0 0 0 0 0 0 0 0 0 0 0 0 0 0 0 0 0 0 0 0 0 0 0 0 0 0 0 0 0 0 0 0 0 0 0 0 0 0 0 0 0 0 0 0 0 "/>
</feComponentTransfer>
<feComposite operator="in" in2="shape" in="coloredNoise1" result="noise1Clipped" />
<feComponentTransfer in="noise1Clipped" result="color1">
<feFuncA type="table" tableValues="0 0.15" />
</feComponentTransfer>
<feMerge result="effect1_noise_29_28">
<feMergeNode in="shape" />
<feMergeNode in="color1" />
</feMerge>
<feGaussianBlur stdDeviation="5.35" result="effect2_foregroundBlur_29_28"/>
<feTurbulence type="fractalNoise" baseFrequency="0.10309278219938278 0.10309278219938278" numOctaves="3" seed="3824" />
<feDisplacementMap in="effect2_foregroundBlur_29_28" scale="8" xChannelSelector="R" yChannelSelector="G" result="displacedImage" width="100%" height="100%" />
<feMerge result="effect3_texture_29_28">
<feMergeNode in="displacedImage"/>
</feMerge>
</filter>
<linearGradient id="paint0_linear_29_28" x1="714.134" y1="10.6999" x2="714.134" y2="1784.7" gradientUnits="userSpaceOnUse">
<stop stop-color="white"/>
<stop offset="1" stop-color="#F6F5F3"/>
</linearGradient>
<linearGradient id="paint1_linear_29_28" x1="714.134" y1="10.6999" x2="714.134" y2="1784.7" gradientUnits="userSpaceOnUse">
<stop stop-color="white"/>
<stop offset="1" stop-color="#F6F5F3"/>
</linearGradient>
<linearGradient id="paint2_linear_29_28" x1="714.134" y1="10.6999" x2="714.134" y2="1784.7" gradientUnits="userSpaceOnUse">
<stop stop-color="white"/>
<stop offset="1" stop-color="#F6F5F3"/>
</linearGradient>
</defs>
</svg>
