<svg width="1279" height="1796" viewBox="0 0 1279 1796" fill="none" xmlns="http://www.w3.org/2000/svg">
<g filter="url(#filter0_nfg_29_28)">
<path fill-rule="evenodd" clip-rule="evenodd" d="M1028.3 1740.85C1028.3 1742.81 1026.84 1744.49 1024.91 1744.81C707.127 1797.27 527.444 1798.71 209.663 1744.82C207.741 1744.49 206.293 1742.82 206.293 1740.87V1518.78C527.427 1555.52 707.146 1555.29 1028.3 1518.78V1740.85Z" fill="white" fill-opacity="0.9"/>
<path fill-rule="evenodd" clip-rule="evenodd" d="M720.106 257.035C557.174 260.947 411.315 255.874 210.601 241.902C208.287 241.741 206.293 243.572 206.293 245.891V1518.78C527.427 1555.52 707.146 1555.29 1028.3 1518.78V245.886C1028.3 243.569 1026.33 241.736 1024.02 241.895C1022.93 241.969 1021.85 242.044 1020.76 242.118L823.663 376.618C822.895 377.142 821.998 377.444 821.07 377.49C788.51 379.132 757.197 380.474 726.693 381.516C724.315 381.597 722.203 380.024 721.664 377.706C713.133 341.012 712.554 299.131 720.106 257.035ZM316.808 613.264C314.874 612.148 314.229 609.664 315.375 607.747L448.623 384.908C449.747 383.028 452.175 382.402 454.068 383.504L716.661 536.344C718.566 537.453 719.215 539.893 718.113 541.801L588.843 765.704C587.738 767.618 585.292 768.273 583.378 767.169L316.808 613.264ZM482.738 1281.53C481.286 1283.5 478.422 1283.71 476.691 1281.98L427.758 1233.05L535.165 1210.48L482.738 1281.53ZM575.392 1155.97L535.165 1210.48L613.456 1194.03L717.139 1297.72C718.754 1299.33 721.392 1299.27 722.928 1297.58L755.146 1262.12L819.648 1470.4C820.388 1472.79 818.779 1475.27 816.297 1475.56L454.009 1518.39C452.071 1518.62 450.25 1517.41 449.701 1515.54L371.669 1249.24C371.013 1247 372.403 1244.68 374.685 1244.2L427.758 1233.05L282.787 1088.08C281.507 1086.8 281.246 1084.82 282.151 1083.25L405.265 870.012C406.583 867.73 409.708 867.323 411.566 869.191L597.024 1055.68L541.445 1116.62C540.004 1118.2 540.06 1120.64 541.572 1122.15L575.392 1155.97ZM575.392 1155.97L625.051 1088.67C626.224 1087.08 626.061 1084.88 624.669 1083.48L597.024 1055.68L739.091 899.889C740.675 898.152 743.409 898.149 744.997 899.884L912.794 1083.22C914.189 1084.74 914.193 1087.08 912.804 1088.61L755.146 1262.12L727.771 1173.72C727.16 1171.75 725.148 1170.56 723.127 1170.99L613.456 1194.03L575.392 1155.97Z" fill="white" fill-opacity="0.9"/>
<path fill-rule="evenodd" clip-rule="evenodd" d="M1020.76 242.118C906.951 249.889 810.879 254.856 720.106 257.035C733.744 181.013 773.901 104.294 841.627 56.1724C965.113 -31.5673 1170.26 21.3078 1221.22 99.7125C1222.66 101.928 1221.96 104.818 1219.78 106.307L1020.76 242.118Z" fill="white" fill-opacity="0.9"/>
<path fill-rule="evenodd" clip-rule="evenodd" d="M720.106 257.035C810.879 254.856 906.951 249.889 1020.76 242.118L823.663 376.618C822.895 377.142 821.998 377.444 821.07 377.49C788.51 379.132 757.197 380.474 726.693 381.516C724.315 381.597 722.203 380.024 721.664 377.706C713.133 341.012 712.554 299.131 720.106 257.035Z" fill="white" fill-opacity="0.9"/>
</g>
<defs>
<filter id="filter0_nfg_29_28" x="195.593" y="1.23978e-05" width="1037.08" height="1795.4" filterUnits="userSpaceOnUse" color-interpolation-filters="sRGB">
<feFlood flood-opacity="0" result="BackgroundImageFix"/>
<feBlend mode="normal" in="SourceGraphic" in2="BackgroundImageFix" result="shape"/>
<feTurbulence type="fractalNoise" baseFrequency="0.21276596188545227 0.21276596188545227" stitchTiles="stitch" numOctaves="3" result="noise" seed="1145" />
<feComponentTransfer in="noise" result="coloredNoise1">
<feFuncR type="linear" slope="2" intercept="-0.5" />
<feFuncG type="linear" slope="2" intercept="-0.5" />
<feFuncB type="linear" slope="2" intercept="-0.5" />
<feFuncA type="discrete" tableValues="1 1 1 1 1 1 1 1 1 1 1 1 1 1 1 1 1 1 1 1 1 1 1 1 1 1 1 1 1 1 1 1 1 1 1 1 1 1 1 1 1 1 1 1 1 1 1 1 1 1 1 0 0 0 0 0 0 0 0 0 0 0 0 0 0 0 0 0 0 0 0 0 0 0 0 0 0 0 0 0 0 0 0 0 0 0 0 0 0 0 0 0 0 0 0 0 0 0 0 0 "/>
</feComponentTransfer>
<feComposite operator="in" in2="shape" in="coloredNoise1" result="noise1Clipped" />
<feComponentTransfer in="noise1Clipped" result="color1">
<feFuncA type="table" tableValues="0 0.15" />
</feComponentTransfer>
<feMerge result="effect1_noise_29_28">
<feMergeNode in="shape" />
<feMergeNode in="color1" />
</feMerge>
<feGaussianBlur stdDeviation="5.35" result="effect2_foregroundBlur_29_28"/>
<feTurbulence type="fractalNoise" baseFrequency="0.10309278219938278 0.10309278219938278" numOctaves="3" seed="3824" />
<feDisplacementMap in="effect2_foregroundBlur_29_28" scale="8" xChannelSelector="R" yChannelSelector="G" result="displacedImage" width="100%" height="100%" />
<feMerge result="effect3_texture_29_28">
<feMergeNode in="displacedImage"/>
</feMerge>
</filter>
</defs>
</svg>
