<svg width="1278" height="1796" viewBox="0 0 1278 1796" fill="none" xmlns="http://www.w3.org/2000/svg">
<g filter="url(#filter0_nfg_29_11)">
<path fill-rule="evenodd" clip-rule="evenodd" d="M953.804 1719.47C953.804 1739.04 939.577 1755.77 920.246 1758.81C705.501 1792.49 571.59 1793.37 356.805 1758.91C337.55 1755.83 323.419 1739.13 323.419 1719.63V1580.48C569.693 1608.66 707.518 1608.48 953.804 1580.48V1719.47Z" fill="#F6F5F3" fill-opacity="0.9"/>
<path fill-rule="evenodd" clip-rule="evenodd" d="M323.419 14.7024C323.419 12.3833 325.431 10.5536 327.745 10.7144C567.271 27.3612 704.978 27.4418 949.48 10.7096C951.792 10.5513 953.804 12.3804 953.804 14.6977V1580.48C707.518 1608.48 569.693 1608.66 323.419 1580.48V14.7024Z" fill="url(#paint0_linear_29_11)" fill-opacity="0.8"/>
</g>
<defs>
<filter id="filter0_nfg_29_11" x="312.719" y="1.23978e-05" width="651.785" height="1795.11" filterUnits="userSpaceOnUse" color-interpolation-filters="sRGB">
<feFlood flood-opacity="0" result="BackgroundImageFix"/>
<feBlend mode="normal" in="SourceGraphic" in2="BackgroundImageFix" result="shape"/>
<feTurbulence type="fractalNoise" baseFrequency="0.21276596188545227 0.21276596188545227" stitchTiles="stitch" numOctaves="3" result="noise" seed="1145" />
<feComponentTransfer in="noise" result="coloredNoise1">
<feFuncR type="linear" slope="2" intercept="-0.5" />
<feFuncG type="linear" slope="2" intercept="-0.5" />
<feFuncB type="linear" slope="2" intercept="-0.5" />
<feFuncA type="discrete" tableValues="1 1 1 1 1 1 1 1 1 1 1 1 1 1 1 1 1 1 1 1 1 1 1 1 1 1 1 1 1 1 1 1 1 1 1 1 1 1 1 1 1 1 1 1 1 1 1 1 1 1 1 0 0 0 0 0 0 0 0 0 0 0 0 0 0 0 0 0 0 0 0 0 0 0 0 0 0 0 0 0 0 0 0 0 0 0 0 0 0 0 0 0 0 0 0 0 0 0 0 0 "/>
</feComponentTransfer>
<feComposite operator="in" in2="shape" in="coloredNoise1" result="noise1Clipped" />
<feComponentTransfer in="noise1Clipped" result="color1">
<feFuncA type="table" tableValues="0 0.15" />
</feComponentTransfer>
<feMerge result="effect1_noise_29_11">
<feMergeNode in="shape" />
<feMergeNode in="color1" />
</feMerge>
<feGaussianBlur stdDeviation="5.35" result="effect2_foregroundBlur_29_11"/>
<feTurbulence type="fractalNoise" baseFrequency="0.10309278219938278 0.10309278219938278" numOctaves="3" seed="3824" />
<feDisplacementMap in="effect2_foregroundBlur_29_11" scale="8" xChannelSelector="R" yChannelSelector="G" result="displacedImage" width="100%" height="100%" />
<feMerge result="effect3_texture_29_11">
<feMergeNode in="displacedImage"/>
</feMerge>
</filter>
<linearGradient id="paint0_linear_29_11" x1="638.611" y1="10.4127" x2="638.611" y2="1784.41" gradientUnits="userSpaceOnUse">
<stop stop-color="white"/>
<stop offset="1" stop-color="#F6F5F3"/>
</linearGradient>
</defs>
</svg>
