<svg width="1279" height="2499" viewBox="0 0 1279 2499" fill="none" xmlns="http://www.w3.org/2000/svg">
<g filter="url(#filter0_nfg_29_11)">
<path fill-rule="evenodd" clip-rule="evenodd" d="M890.453 1897.81C890.453 1917.38 876.275 1934.12 856.937 1937.1C691.864 1962.58 586.273 1963.23 421.161 1937.21C401.899 1934.17 387.814 1917.47 387.814 1897.97V1793.86C584.182 1816.33 694.076 1816.19 890.453 1793.86V1897.81Z" fill="#F6F5F3" fill-opacity="0.9"/>
<path fill-rule="evenodd" clip-rule="evenodd" d="M387.814 546.255C387.814 543.936 389.824 542.106 392.138 542.266C582.3 555.459 692.02 555.523 886.132 542.261C888.444 542.103 890.453 543.933 890.453 546.25V1793.86C694.076 1816.19 584.182 1816.33 387.814 1793.86V546.255Z" fill="url(#paint0_linear_29_11)" fill-opacity="0.8"/>
</g>
<defs>
<filter id="filter0_nfg_29_11" x="377.114" y="531.552" width="524.038" height="1435.61" filterUnits="userSpaceOnUse" color-interpolation-filters="sRGB">
<feFlood flood-opacity="0" result="BackgroundImageFix"/>
<feBlend mode="normal" in="SourceGraphic" in2="BackgroundImageFix" result="shape"/>
<feTurbulence type="fractalNoise" baseFrequency="0.21276596188545227 0.21276596188545227" stitchTiles="stitch" numOctaves="3" result="noise" seed="1145" />
<feComponentTransfer in="noise" result="coloredNoise1">
<feFuncR type="linear" slope="2" intercept="-0.5" />
<feFuncG type="linear" slope="2" intercept="-0.5" />
<feFuncB type="linear" slope="2" intercept="-0.5" />
<feFuncA type="discrete" tableValues="1 1 1 1 1 1 1 1 1 1 1 1 1 1 1 1 1 1 1 1 1 1 1 1 1 1 1 1 1 1 1 1 1 1 1 1 1 1 1 1 1 1 1 1 1 1 1 1 1 1 1 0 0 0 0 0 0 0 0 0 0 0 0 0 0 0 0 0 0 0 0 0 0 0 0 0 0 0 0 0 0 0 0 0 0 0 0 0 0 0 0 0 0 0 0 0 0 0 0 0 "/>
</feComponentTransfer>
<feComposite operator="in" in2="shape" in="coloredNoise1" result="noise1Clipped" />
<feComponentTransfer in="noise1Clipped" result="color1">
<feFuncA type="table" tableValues="0 0.15" />
</feComponentTransfer>
<feMerge result="effect1_noise_29_11">
<feMergeNode in="shape" />
<feMergeNode in="color1" />
</feMerge>
<feGaussianBlur stdDeviation="5.35" result="effect2_foregroundBlur_29_11"/>
<feTurbulence type="fractalNoise" baseFrequency="0.10309278219938278 0.10309278219938278" numOctaves="3" seed="3824" />
<feDisplacementMap in="effect2_foregroundBlur_29_11" scale="8" xChannelSelector="R" yChannelSelector="G" result="displacedImage" width="100%" height="100%" />
<feMerge result="effect3_texture_29_11">
<feMergeNode in="displacedImage"/>
</feMerge>
</filter>
<linearGradient id="paint0_linear_29_11" x1="639.134" y1="541.965" x2="639.134" y2="1956.47" gradientUnits="userSpaceOnUse">
<stop stop-color="white"/>
<stop offset="1" stop-color="#F6F5F3"/>
</linearGradient>
</defs>
</svg>
