<svg width="1278" height="1796" viewBox="0 0 1278 1796" fill="none" xmlns="http://www.w3.org/2000/svg">
<g filter="url(#filter0_nfg_29_11)">
<path fill-rule="evenodd" clip-rule="evenodd" d="M953.804 1750C953.804 1751.95 952.348 1753.63 950.417 1753.95C707.467 1794.02 569.74 1795.11 326.788 1753.96C324.865 1753.64 323.419 1751.96 323.419 1750.01V1580.48C569.693 1608.66 707.518 1608.48 953.804 1580.48V1750Z" fill="#ECECEC"/>
<path fill-rule="evenodd" clip-rule="evenodd" d="M323.419 14.7024C323.419 12.3833 325.431 10.5536 327.745 10.7144C567.271 27.3612 704.978 27.4418 949.48 10.7095C951.792 10.5513 953.804 12.3804 953.804 14.6977V1580.48C707.518 1608.48 569.693 1608.66 323.419 1580.48V14.7024ZM448.412 1580.48C446.321 1580.48 444.582 1578.87 444.424 1576.79L398.461 970.398C398.285 968.076 400.122 966.096 402.45 966.096H492.28V176.24C492.28 174.031 494.071 172.24 496.28 172.24H897.365C899.651 172.24 901.473 174.153 901.36 176.436L857.567 1065.91C857.462 1068.04 855.704 1069.71 853.572 1069.71H818.665L857.054 1576.18C857.23 1578.5 855.393 1580.48 853.065 1580.48H448.412Z" fill="white" fill-opacity="0.9"/>
<path fill-rule="evenodd" clip-rule="evenodd" d="M496.28 1069.71C494.071 1069.71 492.28 1067.92 492.28 1065.71V966.096H807.102C809.194 966.096 810.933 967.707 811.091 969.793L818.665 1069.71H496.28Z" fill="white" fill-opacity="0.9"/>
</g>
<defs>
<filter id="filter0_nfg_29_11" x="312.719" y="1.23978e-05" width="651.784" height="1795.11" filterUnits="userSpaceOnUse" color-interpolation-filters="sRGB">
<feFlood flood-opacity="0" result="BackgroundImageFix"/>
<feBlend mode="normal" in="SourceGraphic" in2="BackgroundImageFix" result="shape"/>
<feTurbulence type="fractalNoise" baseFrequency="0.21276596188545227 0.21276596188545227" stitchTiles="stitch" numOctaves="3" result="noise" seed="1145" />
<feComponentTransfer in="noise" result="coloredNoise1">
<feFuncR type="linear" slope="2" intercept="-0.5" />
<feFuncG type="linear" slope="2" intercept="-0.5" />
<feFuncB type="linear" slope="2" intercept="-0.5" />
<feFuncA type="discrete" tableValues="1 1 1 1 1 1 1 1 1 1 1 1 1 1 1 1 1 1 1 1 1 1 1 1 1 1 1 1 1 1 1 1 1 1 1 1 1 1 1 1 1 1 1 1 1 1 1 1 1 1 1 0 0 0 0 0 0 0 0 0 0 0 0 0 0 0 0 0 0 0 0 0 0 0 0 0 0 0 0 0 0 0 0 0 0 0 0 0 0 0 0 0 0 0 0 0 0 0 0 0 "/>
</feComponentTransfer>
<feComposite operator="in" in2="shape" in="coloredNoise1" result="noise1Clipped" />
<feComponentTransfer in="noise1Clipped" result="color1">
<feFuncA type="table" tableValues="0 0.15" />
</feComponentTransfer>
<feMerge result="effect1_noise_29_11">
<feMergeNode in="shape" />
<feMergeNode in="color1" />
</feMerge>
<feGaussianBlur stdDeviation="5.35" result="effect2_foregroundBlur_29_11"/>
<feTurbulence type="fractalNoise" baseFrequency="0.10309278219938278 0.10309278219938278" numOctaves="3" seed="3824" />
<feDisplacementMap in="effect2_foregroundBlur_29_11" scale="8" xChannelSelector="R" yChannelSelector="G" result="displacedImage" width="100%" height="100%" />
<feMerge result="effect3_texture_29_11">
<feMergeNode in="displacedImage"/>
</feMerge>
</filter>
</defs>
</svg>
