<svg width="1278" height="1774" viewBox="0 0 1278 1774" fill="none" xmlns="http://www.w3.org/2000/svg">
<g filter="url(#filter0_nfg_29_47)">
<path fill-rule="evenodd" clip-rule="evenodd" d="M1159.6 1444.47C1159.6 1446.52 1158 1448.25 1155.95 1448.45C752.82 1488.81 525.168 1489.91 122.037 1448.46C119.998 1448.25 118.403 1446.53 118.403 1444.48V1275.05C149.57 1277.21 179.685 1279.21 208.91 1281.04C531.711 1301.22 745.877 1301.12 1068.58 1281.04C1097.96 1279.21 1128.25 1277.21 1159.6 1275.05V1444.47Z" fill="#ECECEC"/>
<path fill-rule="evenodd" clip-rule="evenodd" d="M1231.98 299.345C1232.16 296.96 1230.21 294.953 1227.82 295.053C820.368 311.945 449.379 311.863 50.1845 295.055C47.7934 294.955 45.8401 296.961 46.0171 299.348L118.403 1275.05C149.57 1277.21 179.685 1279.21 208.91 1281.04V481.01C208.91 478.801 210.7 477.01 212.91 477.01H1064.58C1066.79 477.01 1068.58 478.801 1068.58 481.01V1281.04C1097.96 1279.21 1128.25 1277.21 1159.6 1275.05L1231.98 299.345Z" fill="white"/>
</g>
<defs>
<filter id="filter0_nfg_29_47" x="35.3059" y="284.349" width="1207.39" height="1205.49" filterUnits="userSpaceOnUse" color-interpolation-filters="sRGB">
<feFlood flood-opacity="0" result="BackgroundImageFix"/>
<feBlend mode="normal" in="SourceGraphic" in2="BackgroundImageFix" result="shape"/>
<feTurbulence type="fractalNoise" baseFrequency="0.21276596188545227 0.21276596188545227" stitchTiles="stitch" numOctaves="3" result="noise" seed="1145" />
<feComponentTransfer in="noise" result="coloredNoise1">
<feFuncR type="linear" slope="2" intercept="-0.5" />
<feFuncG type="linear" slope="2" intercept="-0.5" />
<feFuncB type="linear" slope="2" intercept="-0.5" />
<feFuncA type="discrete" tableValues="1 1 1 1 1 1 1 1 1 1 1 1 1 1 1 1 1 1 1 1 1 1 1 1 1 1 1 1 1 1 1 1 1 1 1 1 1 1 1 1 1 1 1 1 1 1 1 1 1 1 1 0 0 0 0 0 0 0 0 0 0 0 0 0 0 0 0 0 0 0 0 0 0 0 0 0 0 0 0 0 0 0 0 0 0 0 0 0 0 0 0 0 0 0 0 0 0 0 0 0 "/>
</feComponentTransfer>
<feComposite operator="in" in2="shape" in="coloredNoise1" result="noise1Clipped" />
<feComponentTransfer in="noise1Clipped" result="color1">
<feFuncA type="table" tableValues="0 0.15" />
</feComponentTransfer>
<feMerge result="effect1_noise_29_47">
<feMergeNode in="shape" />
<feMergeNode in="color1" />
</feMerge>
<feGaussianBlur stdDeviation="5.35" result="effect2_foregroundBlur_29_47"/>
<feTurbulence type="fractalNoise" baseFrequency="0.10309278219938278 0.10309278219938278" numOctaves="3" seed="3824" />
<feDisplacementMap in="effect2_foregroundBlur_29_47" scale="8" xChannelSelector="R" yChannelSelector="G" result="displacedImage" width="100%" height="100%" />
<feMerge result="effect3_texture_29_47">
<feMergeNode in="displacedImage"/>
</feMerge>
</filter>
</defs>
</svg>
