<svg width="1394" height="1774" viewBox="0 0 1394 1774" fill="none" xmlns="http://www.w3.org/2000/svg">
<g filter="url(#filter0_nfg_29_47)">
<path fill-rule="evenodd" clip-rule="evenodd" d="M1299.26 1500.04C1299.26 1520.58 1283.61 1537.8 1263.17 1539.79C826.85 1582.34 566.846 1583.48 130.505 1539.88C110.105 1537.84 94.5197 1520.64 94.5197 1500.14V1336.01C565.179 1368.63 828.579 1368.43 1299.26 1336.01V1500.04Z" fill="#F6F5F3" fill-opacity="0.9"/>
<path fill-rule="evenodd" clip-rule="evenodd" d="M10.7115 206.338C10.5344 203.952 12.4878 201.945 14.879 202.046C477.277 221.532 906.935 221.628 1378.9 202.043C1381.29 201.944 1383.25 203.95 1383.07 206.335L1299.26 1336.01C828.579 1368.43 565.179 1368.63 94.5197 1336.01L10.7115 206.338Z" fill="url(#paint0_linear_29_47)" fill-opacity="0.8"/>
</g>
<defs>
<filter id="filter0_nfg_29_47" x="0.000195503" y="191.339" width="1393.78" height="1391.51" filterUnits="userSpaceOnUse" color-interpolation-filters="sRGB">
<feFlood flood-opacity="0" result="BackgroundImageFix"/>
<feBlend mode="normal" in="SourceGraphic" in2="BackgroundImageFix" result="shape"/>
<feTurbulence type="fractalNoise" baseFrequency="0.21276596188545227 0.21276596188545227" stitchTiles="stitch" numOctaves="3" result="noise" seed="1145" />
<feComponentTransfer in="noise" result="coloredNoise1">
<feFuncR type="linear" slope="2" intercept="-0.5" />
<feFuncG type="linear" slope="2" intercept="-0.5" />
<feFuncB type="linear" slope="2" intercept="-0.5" />
<feFuncA type="discrete" tableValues="1 1 1 1 1 1 1 1 1 1 1 1 1 1 1 1 1 1 1 1 1 1 1 1 1 1 1 1 1 1 1 1 1 1 1 1 1 1 1 1 1 1 1 1 1 1 1 1 1 1 1 0 0 0 0 0 0 0 0 0 0 0 0 0 0 0 0 0 0 0 0 0 0 0 0 0 0 0 0 0 0 0 0 0 0 0 0 0 0 0 0 0 0 0 0 0 0 0 0 0 "/>
</feComponentTransfer>
<feComposite operator="in" in2="shape" in="coloredNoise1" result="noise1Clipped" />
<feComponentTransfer in="noise1Clipped" result="color1">
<feFuncA type="table" tableValues="0 0.15" />
</feComponentTransfer>
<feMerge result="effect1_noise_29_47">
<feMergeNode in="shape" />
<feMergeNode in="color1" />
</feMerge>
<feGaussianBlur stdDeviation="5.35" result="effect2_foregroundBlur_29_47"/>
<feTurbulence type="fractalNoise" baseFrequency="0.10309278219938278 0.10309278219938278" numOctaves="3" seed="3824" />
<feDisplacementMap in="effect2_foregroundBlur_29_47" scale="8" xChannelSelector="R" yChannelSelector="G" result="displacedImage" width="100%" height="100%" />
<feMerge result="effect3_texture_29_47">
<feMergeNode in="displacedImage"/>
</feMerge>
</filter>
<linearGradient id="paint0_linear_29_47" x1="696.89" y1="201.855" x2="696.89" y2="1572.14" gradientUnits="userSpaceOnUse">
<stop stop-color="white"/>
<stop offset="1" stop-color="#F6F5F3"/>
</linearGradient>
</defs>
</svg>
