<svg width="894" height="1018" viewBox="0 0 894 1018" fill="none" xmlns="http://www.w3.org/2000/svg">
<g filter="url(#filter0_dng_33_63)">
<path fill-rule="evenodd" clip-rule="evenodd" d="M37.2002 427.607V37.2025C196.328 43.9487 321.234 47.3625 446.712 47.4189C571.339 47.3629 695.4 43.8586 852.988 37.2032C854.743 37.129 856.224 38.4451 856.224 40.2019V427.471C856.224 464.848 840.188 490.359 823.523 516.87C805.499 545.543 786.74 575.384 786.74 622.673V817.875C627.783 828.894 536.609 834.611 446.712 834.801C356.815 834.611 265.641 829.03 106.684 818.011V622.809C106.684 575.52 87.9254 545.679 69.9015 517.006C53.2367 490.496 37.2002 464.985 37.2002 427.607Z" fill="url(#paint0_linear_33_63)"/>
<path fill-rule="evenodd" clip-rule="evenodd" d="M446.712 834.801C536.609 834.611 627.783 828.894 786.74 817.875V927.853C786.74 943.682 774.757 956.952 759.01 958.559C616.966 973.05 531.274 980.256 446.712 980.44C357.471 980.246 266.973 972.367 110.31 956.224C108.271 956.014 106.684 954.292 106.684 952.241V818.011C265.641 829.03 356.815 834.611 446.712 834.801Z" fill="url(#paint1_linear_33_63)"/>
</g>
<defs>
<filter id="filter0_dng_33_63" x="0.00019455" y="0.00019455" width="893.424" height="1017.64" filterUnits="userSpaceOnUse" color-interpolation-filters="sRGB">
<feFlood flood-opacity="0" result="BackgroundImageFix"/>
<feColorMatrix in="SourceAlpha" type="matrix" values="0 0 0 0 0 0 0 0 0 0 0 0 0 0 0 0 0 0 127 0" result="hardAlpha"/>
<feOffset/>
<feGaussianBlur stdDeviation="18.6"/>
<feComposite in2="hardAlpha" operator="out"/>
<feColorMatrix type="matrix" values="0 0 0 0 0 0 0 0 0 0 0 0 0 0 0 0 0 0 0.12 0"/>
<feBlend mode="normal" in2="BackgroundImageFix" result="effect1_dropShadow_33_63"/>
<feBlend mode="normal" in="SourceGraphic" in2="BackgroundImageFix" result="shape"/>
<feTurbulence type="fractalNoise" baseFrequency="0.76923078298568726 0.76923078298568726" stitchTiles="stitch" numOctaves="3" result="noise" seed="1145" />
<feColorMatrix in="noise" type="luminanceToAlpha" result="alphaNoise" />
<feComponentTransfer in="alphaNoise" result="coloredNoise1">
<feFuncA type="discrete" tableValues="1 1 1 1 1 1 1 1 1 1 1 1 1 1 1 1 1 1 1 1 1 1 1 1 1 1 1 1 1 1 1 1 1 1 1 1 1 1 1 1 1 1 1 1 1 1 1 1 1 1 1 0 0 0 0 0 0 0 0 0 0 0 0 0 0 0 0 0 0 0 0 0 0 0 0 0 0 0 0 0 0 0 0 0 0 0 0 0 0 0 0 0 0 0 0 0 0 0 0 0 "/>
</feComponentTransfer>
<feComposite operator="in" in2="shape" in="coloredNoise1" result="noise1Clipped" />
<feFlood flood-color="#F6F6EC" result="color1Flood" />
<feComposite operator="in" in2="noise1Clipped" in="color1Flood" result="color1" />
<feMerge result="effect2_noise_33_63">
<feMergeNode in="shape" />
<feMergeNode in="color1" />
</feMerge>
<feBlend mode="normal" in="effect2_noise_33_63" in2="effect1_dropShadow_33_63" result="effect2_noise_33_63"/>
<feTurbulence type="fractalNoise" baseFrequency="0.22727271914482117 0.22727271914482117" numOctaves="3" seed="3824" />
<feDisplacementMap in="effect2_noise_33_63" scale="6.5999999046325684" xChannelSelector="R" yChannelSelector="G" result="displacedImage" width="100%" height="100%" />
<feMerge result="effect3_texture_33_63">
<feMergeNode in="displacedImage"/>
</feMerge>
</filter>
<linearGradient id="paint0_linear_33_63" x1="445.607" y1="146.717" x2="446.23" y2="980.441" gradientUnits="userSpaceOnUse">
<stop stop-color="white"/>
<stop offset="1" stop-color="#F7F7F7"/>
</linearGradient>
<linearGradient id="paint1_linear_33_63" x1="445.607" y1="146.717" x2="446.23" y2="980.441" gradientUnits="userSpaceOnUse">
<stop stop-color="white"/>
<stop offset="1" stop-color="#F7F7F7"/>
</linearGradient>
</defs>
</svg>
