<svg width="1279" height="1796" viewBox="0 0 1279 1796" fill="none" xmlns="http://www.w3.org/2000/svg">
<g filter="url(#filter0_nfg_29_8)">
<path fill-rule="evenodd" clip-rule="evenodd" d="M271.193 284.356H866.279L663.25 1079.69H697.26L903.033 284.356H1007.49C1007.49 284.356 877.916 325.829 880.342 537.398C881.323 622.937 910.758 703.898 942.019 789.882C978.101 889.129 1016.62 995.069 1016.62 1122.46C1016.62 1354.2 962.99 1488.1 663.25 1494.75V1737.02L936.136 1784.7H639.343H342.55L615.437 1737.02V1494.83C325.835 1489.88 262.069 1351.79 262.069 1122.46C262.069 1000.63 300.5 895.118 336.842 795.344C368.903 707.324 399.337 623.767 400.328 537.398C402.755 325.829 271.193 284.356 271.193 284.356ZM813.726 1056.96L639.343 1157.64V955.956H400.328V1202.36H561.882L541.089 1214.36L687.122 1458.91L956.127 1303.6L813.726 1056.96ZM507.279 537.398L470.032 698.093L639.343 743.46L687.122 565.146L507.279 537.398Z" fill="white" fill-opacity="0.9"/>
<path fill-rule="evenodd" clip-rule="evenodd" d="M639.343 1202.36H561.882L639.343 1157.64V1202.36Z" fill="white" fill-opacity="0.9"/>
<path fill-rule="evenodd" clip-rule="evenodd" d="M936.136 10.7H973.835L903.033 284.356H866.279L936.136 10.7Z" fill="white" fill-opacity="0.9"/>
</g>
<defs>
<filter id="filter0_nfg_29_8" x="251.369" y="1.23978e-05" width="775.948" height="1795.4" filterUnits="userSpaceOnUse" color-interpolation-filters="sRGB">
<feFlood flood-opacity="0" result="BackgroundImageFix"/>
<feBlend mode="normal" in="SourceGraphic" in2="BackgroundImageFix" result="shape"/>
<feTurbulence type="fractalNoise" baseFrequency="0.21276596188545227 0.21276596188545227" stitchTiles="stitch" numOctaves="3" result="noise" seed="1145" />
<feComponentTransfer in="noise" result="coloredNoise1">
<feFuncR type="linear" slope="2" intercept="-0.5" />
<feFuncG type="linear" slope="2" intercept="-0.5" />
<feFuncB type="linear" slope="2" intercept="-0.5" />
<feFuncA type="discrete" tableValues="1 1 1 1 1 1 1 1 1 1 1 1 1 1 1 1 1 1 1 1 1 1 1 1 1 1 1 1 1 1 1 1 1 1 1 1 1 1 1 1 1 1 1 1 1 1 1 1 1 1 1 0 0 0 0 0 0 0 0 0 0 0 0 0 0 0 0 0 0 0 0 0 0 0 0 0 0 0 0 0 0 0 0 0 0 0 0 0 0 0 0 0 0 0 0 0 0 0 0 0 "/>
</feComponentTransfer>
<feComposite operator="in" in2="shape" in="coloredNoise1" result="noise1Clipped" />
<feComponentTransfer in="noise1Clipped" result="color1">
<feFuncA type="table" tableValues="0 0.15" />
</feComponentTransfer>
<feMerge result="effect1_noise_29_8">
<feMergeNode in="shape" />
<feMergeNode in="color1" />
</feMerge>
<feGaussianBlur stdDeviation="5.35" result="effect2_foregroundBlur_29_8"/>
<feTurbulence type="fractalNoise" baseFrequency="0.10309278219938278 0.10309278219938278" numOctaves="3" seed="3824" />
<feDisplacementMap in="effect2_foregroundBlur_29_8" scale="8" xChannelSelector="R" yChannelSelector="G" result="displacedImage" width="100%" height="100%" />
<feMerge result="effect3_texture_29_8">
<feMergeNode in="displacedImage"/>
</feMerge>
</filter>
</defs>
</svg>
