<svg width="1278" height="1774" viewBox="0 0 1278 1774" fill="none" xmlns="http://www.w3.org/2000/svg">
<g filter="url(#filter0_nfg_29_15)">
<path fill-rule="evenodd" clip-rule="evenodd" d="M1254.43 1546.68C1254.43 1548.73 1252.83 1550.46 1250.78 1550.66C773.582 1598.45 504.405 1599.76 27.2073 1550.67C25.1679 1550.46 23.5723 1548.74 23.5723 1546.69V1345.74C504.434 1379.07 773.544 1378.87 1254.43 1345.74V1546.68Z" fill="white" fill-opacity="0.9"/>
<path fill-rule="evenodd" clip-rule="evenodd" d="M1254.43 191.174C1254.43 188.899 1252.48 187.084 1250.21 187.179C768.726 207.209 499.469 207.111 27.7924 187.182C25.5188 187.086 23.5723 188.901 23.5723 191.176V1345.74C504.434 1379.07 773.544 1378.87 1254.43 1345.74V191.174ZM226.028 347.119C223.726 346.978 221.782 348.806 221.782 351.111V1241.43C221.782 1243.5 223.36 1245.23 225.42 1245.42L982.806 1314.27C984.824 1314.45 986.661 1313.1 987.081 1311.11L1177.86 410.207C1178.37 407.817 1176.63 405.536 1174.19 405.386L226.028 347.119Z" fill="white" fill-opacity="0.9"/>
</g>
<defs>
<filter id="filter0_nfg_29_15" x="12.8723" y="176.475" width="1252.26" height="1421.22" filterUnits="userSpaceOnUse" color-interpolation-filters="sRGB">
<feFlood flood-opacity="0" result="BackgroundImageFix"/>
<feBlend mode="normal" in="SourceGraphic" in2="BackgroundImageFix" result="shape"/>
<feTurbulence type="fractalNoise" baseFrequency="0.21276596188545227 0.21276596188545227" stitchTiles="stitch" numOctaves="3" result="noise" seed="1145" />
<feComponentTransfer in="noise" result="coloredNoise1">
<feFuncR type="linear" slope="2" intercept="-0.5" />
<feFuncG type="linear" slope="2" intercept="-0.5" />
<feFuncB type="linear" slope="2" intercept="-0.5" />
<feFuncA type="discrete" tableValues="1 1 1 1 1 1 1 1 1 1 1 1 1 1 1 1 1 1 1 1 1 1 1 1 1 1 1 1 1 1 1 1 1 1 1 1 1 1 1 1 1 1 1 1 1 1 1 1 1 1 1 0 0 0 0 0 0 0 0 0 0 0 0 0 0 0 0 0 0 0 0 0 0 0 0 0 0 0 0 0 0 0 0 0 0 0 0 0 0 0 0 0 0 0 0 0 0 0 0 0 "/>
</feComponentTransfer>
<feComposite operator="in" in2="shape" in="coloredNoise1" result="noise1Clipped" />
<feComponentTransfer in="noise1Clipped" result="color1">
<feFuncA type="table" tableValues="0 0.15" />
</feComponentTransfer>
<feMerge result="effect1_noise_29_15">
<feMergeNode in="shape" />
<feMergeNode in="color1" />
</feMerge>
<feGaussianBlur stdDeviation="5.35" result="effect2_foregroundBlur_29_15"/>
<feTurbulence type="fractalNoise" baseFrequency="0.10309278219938278 0.10309278219938278" numOctaves="3" seed="3824" />
<feDisplacementMap in="effect2_foregroundBlur_29_15" scale="8" xChannelSelector="R" yChannelSelector="G" result="displacedImage" width="100%" height="100%" />
<feMerge result="effect3_texture_29_15">
<feMergeNode in="displacedImage"/>
</feMerge>
</filter>
</defs>
</svg>
