<svg width="1278" height="1796" viewBox="0 0 1278 1796" fill="none" xmlns="http://www.w3.org/2000/svg">
<g filter="url(#filter0_nfg_29_7)">
<path d="M298.063 736.756C298.063 419.161 306.304 257.871 306.304 257.871H825.606L906.893 10.7H940.943L860.735 257.871H971.344C971.344 257.871 979.585 419.161 979.585 736.756C979.585 1003.28 922.705 1139.12 660.511 1148.01L660.417 1741.63L816.005 1768.82C825.641 1770.5 824.41 1784.7 814.628 1784.7H638.824H463.02C453.238 1784.7 452.015 1770.5 461.651 1768.82L617.231 1741.63V1148.01C330.938 1143.54 298.063 1046.73 298.063 736.756Z" fill="url(#paint0_linear_29_7)" fill-opacity="0.8"/>
</g>
<defs>
<filter id="filter0_nfg_29_7" x="287.363" y="1.23978e-05" width="702.921" height="1795.4" filterUnits="userSpaceOnUse" color-interpolation-filters="sRGB">
<feFlood flood-opacity="0" result="BackgroundImageFix"/>
<feBlend mode="normal" in="SourceGraphic" in2="BackgroundImageFix" result="shape"/>
<feTurbulence type="fractalNoise" baseFrequency="0.21276596188545227 0.21276596188545227" stitchTiles="stitch" numOctaves="3" result="noise" seed="1145" />
<feComponentTransfer in="noise" result="coloredNoise1">
<feFuncR type="linear" slope="2" intercept="-0.5" />
<feFuncG type="linear" slope="2" intercept="-0.5" />
<feFuncB type="linear" slope="2" intercept="-0.5" />
<feFuncA type="discrete" tableValues="1 1 1 1 1 1 1 1 1 1 1 1 1 1 1 1 1 1 1 1 1 1 1 1 1 1 1 1 1 1 1 1 1 1 1 1 1 1 1 1 1 1 1 1 1 1 1 1 1 1 1 0 0 0 0 0 0 0 0 0 0 0 0 0 0 0 0 0 0 0 0 0 0 0 0 0 0 0 0 0 0 0 0 0 0 0 0 0 0 0 0 0 0 0 0 0 0 0 0 0 "/>
</feComponentTransfer>
<feComposite operator="in" in2="shape" in="coloredNoise1" result="noise1Clipped" />
<feComponentTransfer in="noise1Clipped" result="color1">
<feFuncA type="table" tableValues="0 0.15" />
</feComponentTransfer>
<feMerge result="effect1_noise_29_7">
<feMergeNode in="shape" />
<feMergeNode in="color1" />
</feMerge>
<feGaussianBlur stdDeviation="5.35" result="effect2_foregroundBlur_29_7"/>
<feTurbulence type="fractalNoise" baseFrequency="0.10309278219938278 0.10309278219938278" numOctaves="3" seed="3824" />
<feDisplacementMap in="effect2_foregroundBlur_29_7" scale="8" xChannelSelector="R" yChannelSelector="G" result="displacedImage" width="100%" height="100%" />
<feMerge result="effect3_texture_29_7">
<feMergeNode in="displacedImage"/>
</feMerge>
</filter>
<linearGradient id="paint0_linear_29_7" x1="638.824" y1="10.7" x2="638.824" y2="1784.7" gradientUnits="userSpaceOnUse">
<stop stop-color="white"/>
<stop offset="1" stop-color="#F6F5F3"/>
</linearGradient>
</defs>
</svg>
