<svg width="1278" height="1796" viewBox="0 0 1278 1796" fill="none" xmlns="http://www.w3.org/2000/svg">
<g filter="url(#filter0_nfg_29_7)">
<path fill-rule="evenodd" clip-rule="evenodd" d="M881.64 662.605L741.576 625.075L860.735 257.871H971.344C971.344 257.871 979.585 419.161 979.585 736.756C979.585 1003.28 922.705 1139.12 660.511 1148.01C646.864 1148.47 632.568 1148.25 617.785 1148.02L617.231 1148.01C330.938 1143.54 298.063 1046.73 298.063 736.756C298.063 419.161 306.304 257.871 306.304 257.871H825.606L707.82 616.03L494.506 548.426L320.72 849.434L660.511 1045.61L881.64 662.605Z" fill="black" fill-opacity="0.9"/>
<path fill-rule="evenodd" clip-rule="evenodd" d="M906.893 10.7H940.943L860.735 257.871H825.606L906.893 10.7Z" fill="black" fill-opacity="0.9"/>
<path fill-rule="evenodd" clip-rule="evenodd" d="M707.82 616.03L741.576 625.075L691.135 780.517L660.417 760.169L707.82 616.03Z" fill="black" fill-opacity="0.9"/>
<path fill-rule="evenodd" clip-rule="evenodd" d="M617.785 1148.02C632.566 1148.25 646.865 1148.47 660.511 1148.01L660.417 1741.63L906.893 1784.7H638.824H370.755L617.231 1741.63V1148.01L617.785 1148.02Z" fill="black" fill-opacity="0.9"/>
</g>
<defs>
<filter id="filter0_nfg_29_7" x="287.363" y="1.23978e-05" width="702.921" height="1795.4" filterUnits="userSpaceOnUse" color-interpolation-filters="sRGB">
<feFlood flood-opacity="0" result="BackgroundImageFix"/>
<feBlend mode="normal" in="SourceGraphic" in2="BackgroundImageFix" result="shape"/>
<feTurbulence type="fractalNoise" baseFrequency="0.21276596188545227 0.21276596188545227" stitchTiles="stitch" numOctaves="3" result="noise" seed="1145" />
<feComponentTransfer in="noise" result="coloredNoise1">
<feFuncR type="linear" slope="2" intercept="-0.5" />
<feFuncG type="linear" slope="2" intercept="-0.5" />
<feFuncB type="linear" slope="2" intercept="-0.5" />
<feFuncA type="discrete" tableValues="1 1 1 1 1 1 1 1 1 1 1 1 1 1 1 1 1 1 1 1 1 1 1 1 1 1 1 1 1 1 1 1 1 1 1 1 1 1 1 1 1 1 1 1 1 1 1 1 1 1 1 0 0 0 0 0 0 0 0 0 0 0 0 0 0 0 0 0 0 0 0 0 0 0 0 0 0 0 0 0 0 0 0 0 0 0 0 0 0 0 0 0 0 0 0 0 0 0 0 0 "/>
</feComponentTransfer>
<feComposite operator="in" in2="shape" in="coloredNoise1" result="noise1Clipped" />
<feComponentTransfer in="noise1Clipped" result="color1">
<feFuncA type="table" tableValues="0 0.15" />
</feComponentTransfer>
<feMerge result="effect1_noise_29_7">
<feMergeNode in="shape" />
<feMergeNode in="color1" />
</feMerge>
<feGaussianBlur stdDeviation="5.35" result="effect2_foregroundBlur_29_7"/>
<feTurbulence type="fractalNoise" baseFrequency="0.10309278219938278 0.10309278219938278" numOctaves="3" seed="3824" />
<feDisplacementMap in="effect2_foregroundBlur_29_7" scale="8" xChannelSelector="R" yChannelSelector="G" result="displacedImage" width="100%" height="100%" />
<feMerge result="effect3_texture_29_7">
<feMergeNode in="displacedImage"/>
</feMerge>
</filter>
</defs>
</svg>
