<svg width="820" height="944" viewBox="0 0 820 944" fill="none" xmlns="http://www.w3.org/2000/svg">
<path fill-rule="evenodd" clip-rule="evenodd" d="M0 390.407V0.00234997C159.128 6.74853 284.033 10.1623 409.512 10.2187C534.139 10.1627 658.2 6.65843 815.788 0.00298322C817.543 -0.0711495 819.024 1.24486 819.024 3.00175V390.27C819.024 427.648 802.987 453.159 786.322 479.67C768.299 508.342 749.54 538.184 749.54 585.473V780.675C590.583 791.694 499.409 797.411 409.512 797.601C319.615 797.411 228.441 791.83 69.4841 780.811V585.609C69.4841 538.32 50.7253 508.478 32.7013 479.806C16.0365 453.295 0 427.784 0 390.407Z" fill="url(#paint0_linear_33_63)"/>
<path fill-rule="evenodd" clip-rule="evenodd" d="M409.512 797.601C499.409 797.411 590.583 791.694 749.54 780.675V890.653C749.54 906.481 737.557 919.752 721.81 921.359C579.766 935.85 494.074 943.056 409.512 943.24C320.271 943.046 229.772 935.166 73.1098 919.023C71.0705 918.813 69.4841 917.091 69.4841 915.041V780.811C228.441 791.83 319.615 797.411 409.512 797.601Z" fill="url(#paint1_linear_33_63)"/>
<defs>
<linearGradient id="paint0_linear_33_63" x1="408.407" y1="109.517" x2="409.029" y2="943.241" gradientUnits="userSpaceOnUse">
<stop stop-color="white"/>
<stop offset="1" stop-color="#F7F7F7"/>
</linearGradient>
<linearGradient id="paint1_linear_33_63" x1="408.407" y1="109.517" x2="409.029" y2="943.241" gradientUnits="userSpaceOnUse">
<stop stop-color="white"/>
<stop offset="1" stop-color="#F7F7F7"/>
</linearGradient>
</defs>
</svg>
