<svg width="720" height="1692" viewBox="0 0 720 1692" fill="none" xmlns="http://www.w3.org/2000/svg">
<path d="M8.69903 260.92H576.091L642.698 0H678.642L611.135 260.92H710.734C710.734 260.92 587.186 300.464 589.5 502.187C591.515 677.884 719.433 833.326 719.433 1060.03C719.433 1280.98 668.301 1408.65 382.511 1414.98V1645.98L551.81 1675.56C561.445 1677.25 560.215 1691.44 550.433 1691.44H359.717H169C159.219 1691.44 157.995 1677.24 167.631 1675.56L336.922 1645.98V1415.06C60.7978 1410.34 0 1278.68 0 1060.03C0 841.375 129.809 677.884 131.825 502.187C134.138 300.464 8.69903 260.92 8.69903 260.92Z" fill="url(#paint0_linear_33_67)"/>
<defs>
<linearGradient id="paint0_linear_33_67" x1="358.746" y1="196.388" x2="361.025" y2="1691.44" gradientUnits="userSpaceOnUse">
<stop stop-color="white"/>
<stop offset="1" stop-color="#F7F7F7"/>
</linearGradient>
</defs>
</svg>
