<svg width="816" height="815" viewBox="0 0 816 815" fill="none" xmlns="http://www.w3.org/2000/svg">
<path fill-rule="evenodd" clip-rule="evenodd" d="M765.586 756.568C765.586 777.112 749.945 794.338 729.494 796.288C483.79 819.716 331.391 820.329 85.6628 796.366C65.2578 794.377 49.6787 777.169 49.6787 756.667V673.777C329.364 693.165 485.887 693.044 765.586 673.777V756.568Z" fill="url(#paint0_linear_33_62)"/>
<path fill-rule="evenodd" clip-rule="evenodd" d="M0.011278 4.29915C-0.165788 1.91243 1.78691 -0.0941566 4.17808 0.00619981C277.664 11.4843 531.963 11.5401 811.087 0.00326379C813.477 -0.0955274 815.431 1.91053 815.254 4.2962L765.586 673.777C485.887 693.044 329.364 693.165 49.6787 673.777L0.011278 4.29915Z" fill="url(#paint1_linear_33_62)"/>
<defs>
<linearGradient id="paint0_linear_33_62" x1="406.531" y1="94.3604" x2="406.997" y2="814.1" gradientUnits="userSpaceOnUse">
<stop stop-color="white"/>
<stop offset="1" stop-color="#F7F7F7"/>
</linearGradient>
<linearGradient id="paint1_linear_33_62" x1="406.531" y1="94.3604" x2="406.997" y2="814.1" gradientUnits="userSpaceOnUse">
<stop stop-color="white"/>
<stop offset="1" stop-color="#F7F7F7"/>
</linearGradient>
</defs>
</svg>
