<svg width="699" height="1818" viewBox="0 0 699 1818" fill="none" xmlns="http://www.w3.org/2000/svg">
<path d="M0 743.77C0 418.426 8.44157 253.201 8.44157 253.201H540.414L623.683 0H658.564L576.399 253.201H689.707C689.707 253.201 698.148 418.426 698.148 743.77C698.148 1016.8 639.881 1155.95 371.291 1165.06L371.194 1773.16L532.795 1801.4C542.431 1803.08 541.2 1817.28 531.418 1817.28H349.074H166.73C156.948 1817.28 155.722 1803.08 165.358 1801.4L326.954 1773.16V1165.06C33.677 1160.48 0 1061.3 0 743.77Z" fill="url(#paint0_linear_33_69)"/>
<defs>
<linearGradient id="paint0_linear_33_69" x1="348.132" y1="210.999" x2="350.844" y2="1817.28" gradientUnits="userSpaceOnUse">
<stop stop-color="white"/>
<stop offset="1" stop-color="#F7F7F7"/>
</linearGradient>
</defs>
</svg>
