<svg width="937" height="1065" viewBox="0 0 937 1065" fill="none" xmlns="http://www.w3.org/2000/svg">
<path fill-rule="evenodd" clip-rule="evenodd" d="M936.119 1000.49C936.119 1021.03 920.53 1038.25 900.082 1040.22C568.495 1072.26 367.539 1073.11 35.928 1040.3C15.5258 1038.28 0 1021.09 0 1000.58V881.098C365.716 906.45 570.385 906.291 936.119 881.098V1000.49Z" fill="url(#paint0_linear_33_66)"/>
<path fill-rule="evenodd" clip-rule="evenodd" d="M0 4.00111C0 1.72549 1.94484 -0.0895813 4.21844 0.00638255C361.995 15.1074 566.688 15.1813 931.901 0.00357968C934.174 -0.0908675 936.119 1.72379 936.119 3.99837V881.098C570.385 906.291 365.716 906.45 0 881.098V4.00111Z" fill="url(#paint1_linear_33_66)"/>
<defs>
<linearGradient id="paint0_linear_33_66" x1="466.796" y1="123.454" x2="467.49" y2="1064.58" gradientUnits="userSpaceOnUse">
<stop stop-color="white"/>
<stop offset="1" stop-color="#F7F7F7"/>
</linearGradient>
<linearGradient id="paint1_linear_33_66" x1="466.796" y1="123.454" x2="467.49" y2="1064.58" gradientUnits="userSpaceOnUse">
<stop stop-color="white"/>
<stop offset="1" stop-color="#F7F7F7"/>
</linearGradient>
</defs>
</svg>
