<svg width="805" height="1405" viewBox="0 0 805 1405" fill="none" xmlns="http://www.w3.org/2000/svg">
<path fill-rule="evenodd" clip-rule="evenodd" d="M650.911 1369.34C650.911 1371.29 649.455 1372.97 647.525 1373.29C396.559 1414.68 254.337 1415.81 3.36908 1373.3C1.44645 1372.97 0 1371.3 0 1369.35V1194.19C254.293 1223.29 396.606 1223.1 650.911 1194.19V1369.34Z" fill="url(#paint0_linear_33_65)"/>
<path fill-rule="evenodd" clip-rule="evenodd" d="M406.868 195.063C278.091 198.155 162.783 194.159 4.30561 183.142C1.99213 182.981 0 184.812 0 187.131V1194.19C254.293 1223.29 396.606 1223.1 650.911 1194.19V187.127C650.911 184.809 648.948 182.977 646.636 183.135C646.072 183.174 645.508 183.212 644.945 183.251L488.871 289.756C488.263 290.171 487.552 290.41 486.818 290.447C461.035 291.747 436.239 292.809 412.084 293.634C410.201 293.699 408.529 292.453 408.102 290.618C401.347 261.561 400.888 228.397 406.868 195.063Z" fill="url(#paint1_linear_33_65)"/>
<path fill-rule="evenodd" clip-rule="evenodd" d="M644.945 183.251C554.823 189.404 478.748 193.338 406.868 195.063C417.668 134.864 449.466 74.1135 503.096 36.0079C600.88 -33.4698 763.326 8.39997 803.682 70.4855C804.822 72.24 804.267 74.5284 802.539 75.7078L644.945 183.251Z" fill="url(#paint2_linear_33_65)"/>
<path fill-rule="evenodd" clip-rule="evenodd" d="M406.868 195.063C478.748 193.338 554.823 189.404 644.945 183.251L488.871 289.756C488.263 290.171 487.552 290.41 486.818 290.447C461.035 291.747 436.239 292.809 412.084 293.634C410.201 293.699 408.529 292.453 408.102 290.618C401.347 261.561 400.888 228.397 406.868 195.063Z" fill="url(#paint3_linear_33_65)"/>
<defs>
<linearGradient id="paint0_linear_33_65" x1="401.054" y1="163.103" x2="402.461" y2="1404.76" gradientUnits="userSpaceOnUse">
<stop stop-color="white"/>
<stop offset="1" stop-color="#F7F7F7"/>
</linearGradient>
<linearGradient id="paint1_linear_33_65" x1="401.054" y1="163.103" x2="402.461" y2="1404.76" gradientUnits="userSpaceOnUse">
<stop stop-color="white"/>
<stop offset="1" stop-color="#F7F7F7"/>
</linearGradient>
<linearGradient id="paint2_linear_33_65" x1="401.054" y1="163.103" x2="402.461" y2="1404.76" gradientUnits="userSpaceOnUse">
<stop stop-color="white"/>
<stop offset="1" stop-color="#F7F7F7"/>
</linearGradient>
<linearGradient id="paint3_linear_33_65" x1="401.054" y1="163.103" x2="402.461" y2="1404.76" gradientUnits="userSpaceOnUse">
<stop stop-color="white"/>
<stop offset="1" stop-color="#F7F7F7"/>
</linearGradient>
</defs>
</svg>
